HIERARCHY
ROOT hip
{
  OFFSET 0 0 0
  CHANNELS 6 Xposition Yposition Zposition Zrotation Yrotation Xrotation
  JOINT abdomen
  {
    OFFSET 0 20.6881 -0.73152
    CHANNELS 3 Zrotation Xrotation Yrotation
    JOINT chest
    {
      OFFSET 0 11.7043 -0.48768
      CHANNELS 3 Zrotation Xrotation Yrotation
      JOINT neck
      {
        OFFSET 0 22.1894 -2.19456
        CHANNELS 3 Zrotation Xrotation Yrotation
        JOINT head
        {
          OFFSET -0.24384 7.07133 1.2192
          CHANNELS 3 Zrotation Xrotation Yrotation
          JOINT leftEye
          {
            OFFSET 4.14528 8.04674 8.04672
            CHANNELS 3 Zrotation Xrotation Yrotation
            End Site
            {
              OFFSET 1 0 0
            }
          }
          JOINT rightEye
          {
            OFFSET -3.6576 8.04674 8.04672
            CHANNELS 3 Zrotation Xrotation Yrotation
            End Site
            {
              OFFSET 1 0 0
            }
          }
        }
      }
      JOINT rCollar
      {
        OFFSET -2.68224 19.2634 -4.8768
        CHANNELS 3 Zrotation Xrotation Yrotation
        JOINT rShldr
        {
          OFFSET -8.77824 -1.95073 1.46304
          CHANNELS 3 Zrotation Xrotation Yrotation
          JOINT rForeArm
          {
            OFFSET -28.1742 -1.7115 0.48768
            CHANNELS 3 Zrotation Xrotation Yrotation
            JOINT rHand
            {
              OFFSET -22.5879 0.773209 7.07136
              CHANNELS 3 Zrotation Xrotation Yrotation
              JOINT rThumb1
              {
                OFFSET -1.2192 -0.487915 3.41376
                CHANNELS 3 Zrotation Xrotation Yrotation
                JOINT rThumb2
                {
                  OFFSET -3.37035 -0.52449 3.41376
                  CHANNELS 3 Zrotation Xrotation Yrotation
                  End Site
                  {
                    OFFSET -1.78271 -1.18214 1.43049
                  }
                }
              }
              JOINT rIndex1
              {
                OFFSET -7.75947 0.938293 5.60832
                CHANNELS 3 Zrotation Xrotation Yrotation
                JOINT rIndex2
                {
                  OFFSET -2.54057 -0.884171 1.56538
                  CHANNELS 3 Zrotation Xrotation Yrotation
                  End Site
                  {
                    OFFSET -1.62519 -0.234802 1.16502
                  }
                }
              }
              JOINT rMid1
              {
                OFFSET -8.24714 1.18213 3.41376
                CHANNELS 3 Zrotation Xrotation Yrotation
                JOINT rMid2
                {
                  OFFSET -3.10165 -0.590103 1.0647
                  CHANNELS 3 Zrotation Xrotation Yrotation
                  End Site
                  {
                    OFFSET -2.48547 -0.328903 0.83742
                  }
                }
              }
              JOINT rRing1
              {
                OFFSET -8.82822 0.546677 1.51678
                CHANNELS 3 Zrotation Xrotation Yrotation
                JOINT rRing2
                {
                  OFFSET -2.60934 -0.819778 -0.0198488
                  CHANNELS 3 Zrotation Xrotation Yrotation
                  End Site
                  {
                    OFFSET -2.33842 -0.294052 0.168128
                  }
                }
              }
              JOINT rPinky1
              {
                OFFSET -8.27202 -0.0477905 -0.4584
                CHANNELS 3 Zrotation Xrotation Yrotation
                JOINT rPinky2
                {
                  OFFSET -1.82734 -0.647385 -0.700984
                  CHANNELS 3 Zrotation Xrotation Yrotation
                  End Site
                  {
                    OFFSET -1.69225 -0.51767 -0.607171
                  }
                }
              }
            }
          }
        }
      }
      JOINT lCollar
      {
        OFFSET 2.68224 19.2634 -4.8768
        CHANNELS 3 Zrotation Xrotation Yrotation
        JOINT lShldr
        {
          OFFSET 8.77824 -1.95073 1.46304
          CHANNELS 3 Zrotation Xrotation Yrotation
          JOINT lForeArm
          {
            OFFSET 28.1742 -1.7115 0.48768
            CHANNELS 3 Zrotation Xrotation Yrotation
            JOINT lHand
            {
              OFFSET 22.5879 0.773209 7.07136
              CHANNELS 3 Zrotation Xrotation Yrotation
              JOINT lThumb1
              {
                OFFSET 1.2192 -0.487915 3.41376
                CHANNELS 3 Zrotation Xrotation Yrotation
                JOINT lThumb2
                {
                  OFFSET 3.37035 -0.52449 3.41376
                  CHANNELS 3 Zrotation Xrotation Yrotation
                  End Site
                  {
                    OFFSET 1.78271 -1.18214 1.43049
                  }
                }
              }
              JOINT lIndex1
              {
                OFFSET 7.75947 0.938293 5.60832
                CHANNELS 3 Zrotation Xrotation Yrotation
                JOINT lIndex2
                {
                  OFFSET 2.54057 -0.884171 1.56538
                  CHANNELS 3 Zrotation Xrotation Yrotation
                  End Site
                  {
                    OFFSET 1.62519 -0.234802 1.16502
                  }
                }
              }
              JOINT lMid1
              {
                OFFSET 8.24714 1.18213 3.41376
                CHANNELS 3 Zrotation Xrotation Yrotation
                JOINT lMid2
                {
                  OFFSET 3.10165 -0.590103 1.0647
                  CHANNELS 3 Zrotation Xrotation Yrotation
                  End Site
                  {
                    OFFSET 2.48547 -0.328903 0.83742
                  }
                }
              }
              JOINT lRing1
              {
                OFFSET 8.82822 0.546677 1.51678
                CHANNELS 3 Zrotation Xrotation Yrotation
                JOINT lRing2
                {
                  OFFSET 2.60934 -0.819778 -0.0198488
                  CHANNELS 3 Zrotation Xrotation Yrotation
                  End Site
                  {
                    OFFSET 2.33842 -0.294052 0.168128
                  }
                }
              }
              JOINT lPinky1
              {
                OFFSET 8.27202 -0.0477905 -0.4584
                CHANNELS 3 Zrotation Xrotation Yrotation
                JOINT lPinky2
                {
                  OFFSET 1.82734 -0.647385 -0.700984
                  CHANNELS 3 Zrotation Xrotation Yrotation
                  End Site
                  {
                    OFFSET 1.69225 -0.51767 -0.607171
                  }
                }
              }
            }
          }
        }
      }
    }
  }
  JOINT rButtock
  {
    OFFSET -8.77824 4.35084 1.2192
    CHANNELS 3 Zrotation Xrotation Yrotation
    JOINT rThigh
    {
      OFFSET 0 -1.70687 -2.19456
      CHANNELS 3 Zrotation Xrotation Yrotation
      JOINT rShin
      {
        OFFSET 0 -36.8199 0.73152
        CHANNELS 3 Zrotation Xrotation Yrotation
        JOINT rFoot
        {
          OFFSET 0.73152 -45.1104 -5.12064
          CHANNELS 3 Zrotation Xrotation Yrotation
          End Site
          {
            OFFSET -1.1221 -3.69964 12.103
          }
        }
      }
    }
  }
  JOINT lButtock
  {
    OFFSET 8.77824 4.35084 1.2192
    CHANNELS 3 Zrotation Xrotation Yrotation
    JOINT lThigh
    {
      OFFSET 0 -1.70687 -2.19456
      CHANNELS 3 Zrotation Xrotation Yrotation
      JOINT lShin
      {
        OFFSET 0 -36.8199 0.73152
        CHANNELS 3 Zrotation Xrotation Yrotation
        JOINT lFoot
        {
          OFFSET -0.73152 -45.1104 -5.12064
          CHANNELS 3 Zrotation Xrotation Yrotation
          End Site
          {
            OFFSET 1.1221 -3.69964 12.103
          }
        }
      }
    }
  }
}
MOTION
Frames:	4
Frame Time:	0.00833333
29.7706 80.9546 36.5029 -183.801 -7.1738 -155.113 11.4794 -12.1309 4.04234 2.11244 2.44503 0.336006 3.99833 1.34672 0.260717 -2.34838 15.5123 -4.69257 -0.0 0.0 0.0 -0.0 0.0 0.0 -3.94558e-14 5.23535e-15 3.69243e-14 67.771 14.2634 7.03754 -17.8072 -10.4808 33.5889 -0.140131 -10.6118 -1.50885 3.42844e-10 -1.48773e-09 2.94975e-10 5.9252e-10 -2.57574e-09 5.11632e-10 3.42867e-10 -1.48772e-09 2.94969e-10 7.73091 5.47488 0.417314 3.42865e-10 -1.48774e-09 2.94974e-10 2.90554 0.965183 0.102902 3.42851e-10 -1.48773e-09 2.94974e-10 10.2786 0.731801 0.0259123 3.42841e-10 -1.48773e-09 2.94979e-10 2.22167 -0.733487 -0.20892 -3.94159e-14 5.25152e-15 3.67391e-14 -78.0382 22.0894 9.08034 18.2516 -10.9604 -34.5855 3.04315 -43.4007 7.63752 2.33067e-10 6.69542e-11 -2.78636e-10 4.08825e-10 1.28796e-10 -4.73261e-10 2.33069e-10 6.69572e-11 -2.78634e-10 -7.73091 5.47488 -0.417314 2.33066e-10 6.69584e-11 -2.78633e-10 -2.90554 0.965183 -0.102902 2.33059e-10 6.69563e-11 -2.7864e-10 -10.2786 0.731801 -0.0259123 2.33071e-10 6.69582e-11 -2.78641e-10 -2.22167 -0.733487 0.20892 -2.03217e-16 0.0 -3.88251e-19 8.46784 -46.9377 18.2422 -0.319186 40.2733 0.823725 -3.43231 -9.4531 -13.2868 2.03217e-16 0.0 3.88251e-19 -20.7057 -72.6482 -13.2846 3.26036 76.2108 -4.01701 -0.286792 -2.42769 -2.90086
29.7398 81.0584 36.0922 -183.81 -6.7415 -155.299 10.7482 -12.1271 3.86361 1.95378 2.53406 0.34557 4.01017 1.32816 0.449921 -2.23864 15.4952 -4.31883 -0.0 0.0 0.0 -0.0 0.0 0.0 -5.13178e-14 -2.22748e-14 4.07509e-15 68.0319 14.6986 7.08299 -17.5711 -10.2328 33.065 -0.132925 -10.339 -1.46919 7.96516e-10 -2.73375e-09 1.52419e-10 1.37935e-09 -4.73539e-09 2.67868e-10 7.96539e-10 -2.73374e-09 1.52412e-10 7.73091 5.47488 0.417314 7.96537e-10 -2.73376e-09 1.52415e-10 2.90554 0.965183 0.102902 7.96521e-10 -2.73375e-09 1.52415e-10 10.2786 0.731801 0.0259123 7.96514e-10 -2.73375e-09 1.52422e-10 2.22167 -0.733487 -0.20892 -5.12586e-14 -2.22518e-14 3.8763e-15 -77.7968 21.9393 8.77923 18.4968 -11.231 -35.1445 3.00741 -43.2058 7.58538 -7.40855e-11 8.94308e-11 -4.06745e-10 -1.18305e-10 1.75153e-10 -7.04811e-10 -7.40835e-11 8.94348e-11 -4.06742e-10 -7.73091 5.47488 -0.417314 -7.40865e-11 8.9436e-11 -4.06742e-10 -2.90554 0.965183 -0.102902 -7.40951e-11 8.9434e-11 -4.06748e-10 -10.2786 0.731801 -0.0259123 -7.40831e-11 8.94356e-11 -4.06748e-10 -2.22167 -0.733487 0.20892 -2.03217e-16 0.0 -3.88251e-19 8.31839 -46.3247 18.6077 -0.316083 39.9804 0.818878 -3.48046 -9.51428 -13.4728 2.03217e-16 0.0 3.88251e-19 -20.3788 -72.309 -12.7847 2.68797 74.0141 -3.41159 -0.286697 -2.64932 -2.99304
29.7082 81.164 35.6743 -183.81 -6.2913 -155.502 10.0277 -12.1118 3.70031 1.80164 2.63282 0.357772 4.02546 1.31587 0.649288 -2.14875 15.4816 -3.92467 -0.0 0.0 0.0 -0.0 0.0 0.0 -5.71202e-14 1.79058e-14 -2.09112e-15 68.2783 15.1321 7.11931 -17.3277 -9.98201 32.5277 -0.12619 -10.0755 -1.43096 7.97201e-10 -2.37667e-09 -2.42025e-11 1.38046e-09 -4.11837e-09 -3.73212e-11 7.9722e-10 -2.37666e-09 -2.42111e-11 7.73091 5.47488 0.417314 7.97217e-10 -2.37668e-09 -2.42039e-11 2.90554 0.965183 0.102902 7.97206e-10 -2.37667e-09 -2.42051e-11 10.2786 0.731801 0.0259123 7.97199e-10 -2.37667e-09 -2.41984e-11 2.22167 -0.733487 -0.20892 -5.70719e-14 1.7926e-14 -2.28991e-15 -77.5637 21.781 8.47228 18.7288 -11.4919 -35.6772 2.97227 -43.0128 7.534 1.28111e-10 2.59835e-10 -6.6282e-10 2.40162e-10 4.67887e-10 -1.14e-09 1.28112e-10 2.59839e-10 -6.62815e-10 -7.73091 5.47488 -0.417314 1.2811e-10 2.5984e-10 -6.62817e-10 -2.90554 0.965183 -0.102902 1.281e-10 2.59838e-10 -6.62823e-10 -10.2786 0.731801 -0.0259123 1.28111e-10 2.59838e-10 -6.62823e-10 -2.22167 -0.733487 0.20892 -2.03217e-16 0.0 -3.88251e-19 8.16707 -45.6743 18.9482 -0.312906 39.6545 0.809039 -3.51427 -9.5731 -13.6067 2.03217e-16 0.0 3.88251e-19 -19.9156 -71.843 -12.1977 2.23866 71.7174 -2.92346 -0.291782 -2.88111 -3.1175
29.6809 81.2693 35.2529 -183.798 -5.8219 -155.71 9.29897 -12.0941 3.54044 1.65476 2.74103 0.370561 4.04233 1.31203 0.857331 -2.06916 15.4669 -3.51353 -0.0 0.0 0.0 -0.0 0.0 0.0 -5.7207e-14 9.36222e-14 5.51628e-15 68.5127 15.5668 7.14529 -17.0746 -9.72562 31.9741 -0.119807 -9.81864 -1.39374 5.5172e-10 -1.13498e-09 -2.56162e-10 9.54835e-10 -1.96959e-09 -4.39583e-10 5.51732e-10 -1.13498e-09 -2.56174e-10 7.73091 5.47488 0.417314 5.51728e-10 -1.13499e-09 -2.56159e-10 2.90554 0.965183 0.102902 5.51727e-10 -1.13498e-09 -2.56162e-10 10.2786 0.731801 0.0259123 5.51717e-10 -1.13498e-09 -2.56156e-10 2.22167 -0.733487 -0.20892 -5.71881e-14 9.36332e-14 5.3237e-15 -77.336 21.6144 8.15925 18.9497 -11.7456 -36.1867 2.93535 -42.8079 7.47981 5.84158e-10 5.26232e-10 -9.97218e-10 1.04072e-09 9.21307e-10 -1.70181e-09 5.84158e-10 5.26235e-10 -9.97209e-10 -7.73091 5.47488 -0.417314 5.84158e-10 5.26235e-10 -9.97216e-10 -2.90554 0.965183 -0.102902 5.84146e-10 5.26234e-10 -9.97219e-10 -10.2786 0.731801 -0.0259123 5.84156e-10 5.26233e-10 -9.97222e-10 -2.22167 -0.733487 0.20892 -2.03217e-16 0.0 -3.88251e-19 7.99797 -44.9994 19.2589 -0.310201 39.3051 0.794442 -3.53607 -9.63 -13.6992 2.03217e-16 0.0 3.88251e-19 -19.3664 -71.254 -11.5615 1.88095 69.3084 -2.52115 -0.302934 -3.11761 -3.28012
